<svg xmlns="http://www.w3.org/2000/svg" viewBox="0 0 24 24" fill="white">
<path d="M17.128 0a10.134 10.134 0 0 0-2.755.403l-.063.02A10.922 10.922 0 0 0 12.6.258C11.422.238 10.29.44 9.274.863a11.227 11.227 0 0 0-.88-.254C5.64-.043 3.113.75 1.7 2.588c-.8 1.056-.99 2.51-.914 3.904.076 1.394.392 2.745.6 3.24.208.496.392 1.675 1.067 3.15.675 1.474 1.72 3.15 3.35 3.15h.003c.43 0 .898-.098 1.385-.304.343.462.756.924 1.272 1.35.43.354.9.608 1.375.785v1.875c0 .494.182.97.5 1.312.36.383.886.602 1.426.602h1.03c.54 0 1.066-.22 1.426-.602.318-.343.5-.818.5-1.312v-1.312c.42-.17.83-.418 1.207-.753.45-.392.85-.87 1.14-1.432.74.298 1.43.448 2.075.448h.002c1.63 0 2.675-1.675 3.35-3.15.675-1.474.858-2.654 1.067-3.15.208-.496.523-1.847.6-3.24.076-1.394-.115-2.848-.915-3.904C20.887.75 18.362-.043 15.607.609c-.29.065-.578.154-.855.26C14.1.29 12.86.068 11.58.036L11.53 0Zm.075 1.5c.87 0 1.67.124 2.395.37-.79.46-1.44 1.086-1.84 1.806-.42.76-.573 1.625-.484 2.476.09.854.43 1.688 1.02 2.367a4.26 4.26 0 0 0 2.188 1.394l-.003.087c-.058 1.233-.36 2.376-.814 3.087-.453.71-.908 1.007-1.26 1.007l-.023-.001c-.468-.024-1.01-.25-1.554-.626a8.702 8.702 0 0 0 .65-3.293c0-.03-.004-.057-.004-.087L18 9.18V7.987c0-.13-.01-.258-.02-.386C18.24 7.35 18.5 7.09 18.6 6.79c.21-.635.1-1.37-.32-1.912-.42-.543-1.07-.823-1.78-.82-.42 0-.86.11-1.26.34-.21-1.048-.85-1.965-1.8-2.558.67-.22 1.39-.34 2.155-.34Zm-5.28.123c.47 0 .906.045 1.304.134a6.55 6.55 0 0 0-1.243 1.84 6.552 6.552 0 0 0-.484 2.507c0 .27.02.538.057.8H9.46l-.012-.077C9.14 5.41 9.48 3.84 10.43 2.776a4.535 4.535 0 0 1 1.493-.99v-.163Zm5.265 3.34c.41 0 .77.163.997.458.228.296.285.698.166 1.065-.076.232-.245.41-.484.53-.11-.56-.3-1.11-.56-1.615.002-.002-.1-.438.118-.438z"/></svg>