<svg xmlns="http://www.w3.org/2000/svg" viewBox="0 0 24 24">
<path fill="white" d="M17.128 0a10.134 10.134 0 0 0-2.755.403l-.063.02A10.922 10.922 0 0 0 12.6.258C11.422.238 10.29.44 9.274.863a11.227 11.227 0 0 0-.88-.254C5.64-.043 3.113.75 1.7 2.588c-.8 1.056-.99 2.51-.914 3.904.076 1.394.392 2.745.6 3.24.208.496.392 1.675 1.067 3.15.675 1.474 1.72 3.15 3.35 3.15h.003c.43 0 .898-.098 1.385-.304.343.462.756.924 1.272 1.35.43.354.9.608 1.375.785v1.875c0 .494.182.97.5 1.312.36.383.886.602 1.426.602h1.03c.54 0 1.066-.22 1.426-.602.318-.343.5-.818.5-1.312v-1.312c.42-.17.83-.418 1.207-.753.45-.392.85-.87 1.14-1.432.74.298 1.43.448 2.075.448h.002c1.63 0 2.675-1.675 3.35-3.15.675-1.474.858-2.654 1.067-3.15.208-.496.523-1.847.6-3.24.076-1.394-.115-2.848-.915-3.904C20.887.75 18.362-.043 15.607.609c-.29.065-.578.154-.855.26C14.1.29 12.86.068 11.58.036z"/>
</svg>